<?xml version="1.0" encoding="UTF-8" standalone="no"?>
<!-- Created with Inkscape (http://www.inkscape.org/) -->

<svg
   xmlns:dc="http://purl.org/dc/elements/1.1/"
   xmlns:cc="http://creativecommons.org/ns#"
   xmlns:rdf="http://www.w3.org/1999/02/22-rdf-syntax-ns#"
   xmlns:svg="http://www.w3.org/2000/svg"
   xmlns="http://www.w3.org/2000/svg"
   xmlns:xlink="http://www.w3.org/1999/xlink"
   xmlns:sodipodi="http://sodipodi.sourceforge.net/DTD/sodipodi-0.dtd"
   xmlns:inkscape="http://www.inkscape.org/namespaces/inkscape"
   id="svg2"
   version="1.1"
   inkscape:version="0.48.4 r9939"
   width="242.5"
   height="242.5"
   xml:space="preserve"
   sodipodi:docname="AC_DC2.svg"><metadata
     id="metadata8"><rdf:RDF><cc:Work
         rdf:about=""><dc:format>image/svg+xml</dc:format><dc:type
           rdf:resource="http://purl.org/dc/dcmitype/StillImage" /><dc:title></dc:title></cc:Work></rdf:RDF></metadata><defs
     id="defs6"><linearGradient
       id="linearGradient3908"><stop
         style="stop-color:#e24926;stop-opacity:1;"
         offset="0"
         id="stop3910" /><stop
         style="stop-color:#f8d800;stop-opacity:1;"
         offset="1"
         id="stop3912" /></linearGradient><linearGradient
       inkscape:collect="always"
       xlink:href="#linearGradient3908"
       id="linearGradient3914"
       x1="53.083675"
       y1="127.19725"
       x2="53.035561"
       y2="79.463135"
       gradientUnits="userSpaceOnUse" /><linearGradient
       inkscape:collect="always"
       xlink:href="#linearGradient3908"
       id="linearGradient3922"
       x1="47.440094"
       y1="135.19766"
       x2="24.1539"
       y2="113.244"
       gradientUnits="userSpaceOnUse" /><linearGradient
       inkscape:collect="always"
       xlink:href="#linearGradient3908"
       id="linearGradient3930"
       x1="20.038939"
       y1="73.371262"
       x2="25.237631"
       y2="79.325958"
       gradientUnits="userSpaceOnUse" /><linearGradient
       inkscape:collect="always"
       xlink:href="#linearGradient3908"
       id="linearGradient3938"
       x1="35.827274"
       y1="74.738121"
       x2="35.644958"
       y2="86.246925"
       gradientUnits="userSpaceOnUse" /><linearGradient
       inkscape:collect="always"
       xlink:href="#linearGradient3908"
       id="linearGradient3946"
       x1="37.571823"
       y1="74.201302"
       x2="43.027985"
       y2="79.207382"
       gradientUnits="userSpaceOnUse" /><linearGradient
       inkscape:collect="always"
       xlink:href="#linearGradient3908"
       id="linearGradient3954"
       x1="35.669926"
       y1="87.513641"
       x2="35.407806"
       y2="115.92615"
       gradientUnits="userSpaceOnUse" /><linearGradient
       inkscape:collect="always"
       xlink:href="#linearGradient3908"
       id="linearGradient3962"
       x1="76.323967"
       y1="132.76926"
       x2="57.40263"
       y2="114.50838"
       gradientUnits="userSpaceOnUse" /><linearGradient
       inkscape:collect="always"
       xlink:href="#linearGradient3908"
       id="linearGradient3970"
       x1="67.164894"
       y1="68.314613"
       x2="67.056206"
       y2="115.50826"
       gradientUnits="userSpaceOnUse" /><linearGradient
       inkscape:collect="always"
       xlink:href="#linearGradient3908"
       id="linearGradient3978"
       x1="66.854652"
       y1="77.958252"
       x2="76.573174"
       y2="87.444412"
       gradientUnits="userSpaceOnUse" /><linearGradient
       inkscape:collect="always"
       xlink:href="#linearGradient3908"
       id="linearGradient3986"
       x1="108.50198"
       y1="125.33927"
       x2="100.20411"
       y2="99.726646"
       gradientUnits="userSpaceOnUse" /><linearGradient
       inkscape:collect="always"
       xlink:href="#linearGradient3908"
       id="linearGradient3994"
       x1="117.66585"
       y1="113.3253"
       x2="86.010719"
       y2="67.79174"
       gradientUnits="userSpaceOnUse" /><linearGradient
       inkscape:collect="always"
       xlink:href="#linearGradient3908"
       id="linearGradient4002"
       x1="119.31458"
       y1="130.49165"
       x2="108.62692"
       y2="119.70115"
       gradientUnits="userSpaceOnUse" /><linearGradient
       inkscape:collect="always"
       xlink:href="#linearGradient3908"
       id="linearGradient4010"
       x1="122.79234"
       y1="132.2065"
       x2="122.56538"
       y2="77.186768"
       gradientUnits="userSpaceOnUse" /><linearGradient
       inkscape:collect="always"
       xlink:href="#linearGradient3908"
       id="linearGradient4018"
       x1="120.65796"
       y1="74.570732"
       x2="129.78265"
       y2="83.464005"
       gradientUnits="userSpaceOnUse" /><linearGradient
       inkscape:collect="always"
       xlink:href="#linearGradient3908"
       id="linearGradient4026"
       x1="140.29778"
       y1="124.02963"
       x2="140.06979"
       y2="78.021759"
       gradientUnits="userSpaceOnUse" /><linearGradient
       inkscape:collect="always"
       xlink:href="#linearGradient3908"
       id="linearGradient4034"
       x1="161.47127"
       y1="131.58347"
       x2="144.56595"
       y2="114.3898"
       gradientUnits="userSpaceOnUse" /><linearGradient
       inkscape:collect="always"
       xlink:href="#linearGradient3908"
       id="linearGradient4042"
       x1="154.56477"
       y1="76.022118"
       x2="154.69354"
       y2="115.2711"
       gradientUnits="userSpaceOnUse" /><linearGradient
       inkscape:collect="always"
       xlink:href="#linearGradient3908"
       id="linearGradient4050"
       x1="154.13646"
       y1="78.076828"
       x2="164.09242"
       y2="87.681564"
       gradientUnits="userSpaceOnUse" /></defs><sodipodi:namedview
     pagecolor="#ffffff"
     bordercolor="#666666"
     borderopacity="1"
     objecttolerance="10"
     gridtolerance="10"
     guidetolerance="10"
     inkscape:pageopacity="0"
     inkscape:pageshadow="2"
     inkscape:window-width="950"
     inkscape:window-height="908"
     id="namedview4"
     showgrid="false"
     inkscape:zoom="4.16"
     inkscape:cx="71.753655"
     inkscape:cy="121.19369"
     inkscape:window-x="0"
     inkscape:window-y="24"
     inkscape:window-maximized="0"
     inkscape:current-layer="g10" /><g
     id="g10"
     inkscape:groupmode="layer"
     inkscape:label="ink_ext_XXXXXX"
     transform="matrix(1.25,0,0,-1.25,0,242.5)"><path
       inkscape:connector-curvature="0"
       id="path14"
       style="fill:#231f20;fill-opacity:1;fill-rule:evenodd;stroke:none"
       d="m 0.259766,0.566797 192.756004,0 0,192.756003 -192.756004,0 0,-192.756003 z" /><path
       inkscape:connector-curvature="0"
       id="path16"
       style="fill:#e24a27;fill-opacity:1;fill-rule:evenodd;stroke:none"
       d="m 70.4348,126.337 -12.3621,-12.296 0,-34.8254 11.73,-11.6633 12.9989,12.9989 -5.8727,5.7523 -7.6816,-7.6824 -3.1496,3.0594 0,36.8255 10.8339,-10.984 6.1543,6.032 -12.6511,12.783" /><path
       inkscape:connector-curvature="0"
       id="path18"
       style="fill:#e24a27;fill-opacity:1;fill-rule:evenodd;stroke:none"
       d="m 98.0672,98.2793 5.9918,16.2837 -9.1633,0 -10.6199,-24.379 8.5187,0 -7.3816,-21.2391 21.0481,29.3344 -8.3938,0" /><path
       inkscape:connector-curvature="0"
       id="path20"
       style="fill:#e24a27;fill-opacity:1;fill-rule:evenodd;stroke:none"
       d="m 139.112,115.737 -10.605,10.74 -12.054,0 -6.73,-6.795 3.74,-3.741 0,-38.0609 -3.676,-3.677 6.672,-6.9289 12.048,0 10.605,10.7399 0,37.7229 z m -17.624,-42.1999 0,46.6669 9.599,-9.189 0,-28.208 -9.599,-9.2699" /><path
       inkscape:connector-curvature="0"
       id="path22"
       style="fill:#e24827;fill-opacity:1;fill-rule:evenodd;stroke:none"
       d="m 52.0012,78.6555 0,35.3875 -12.2254,12.226 -13.3524,-13.285 0,-34.3285 -3.5285,-3.5293 7.5086,-7.5703 7.5723,7.5722 -3.5266,3.5274 0,8.7797 9.5274,0 0,-8.7797 -3.5289,-3.5293 7.5086,-7.5703 7.5722,7.5722 -3.5273,3.5274 z m -17.552,17.1574 0,22.6771 9.5274,-9.527 0,-13.1501 -9.5274,0" /><path
       inkscape:connector-curvature="0"
       id="path24"
       style="fill:#fde6b8;fill-opacity:1;fill-rule:evenodd;stroke:none"
       d="m 41.9504,97.8379 2.0262,-2.025 -9.5274,0 2.0258,2.025 5.4754,0" /><path
       inkscape:connector-curvature="0"
       id="path26"
       style="fill:#e24a26;fill-opacity:1;fill-rule:evenodd;stroke:none"
       d="m 41.9504,97.8379 2.0262,-2.025 0,13.1501 -2.0262,-0.84 0,-10.2851" /><path
       inkscape:connector-curvature="0"
       id="path28"
       style="fill:#6e3407;fill-opacity:1;fill-rule:evenodd;stroke:none"
       d="m 41.9504,108.123 2.0262,0.84 -9.5274,9.527 2.0258,-4.89 5.4754,-5.477" /><path
       inkscape:connector-curvature="0"
       id="path30"
       style="fill:url(#linearGradient3954);fill-opacity:1;fill-rule:evenodd;stroke:none"
       d="m 36.475,97.8379 -2.0258,-2.025 0,22.6771 2.0258,-4.89 0,-15.7621" /><path
       inkscape:connector-curvature="0"
       id="path32"
       style="fill:#fde6b8;fill-opacity:1;fill-rule:evenodd;stroke:none"
       d="m 58.3934,75.1281 -2.8649,0 -3.5273,3.5274 2.0261,0.8386 4.3661,-4.366" /><path
       inkscape:connector-curvature="0"
       id="path34"
       style="fill:#e24926;fill-opacity:1;fill-rule:evenodd;stroke:none"
       d="m 58.3934,75.1281 -2.8649,0 -7.5722,-7.5722 -0.0063,-2.8711 10.4434,10.4433" /><path
       inkscape:connector-curvature="0"
       id="path36"
       style="fill:#e24826;fill-opacity:1;fill-rule:evenodd;stroke:none"
       d="m 41.9504,79.4941 2.0262,-0.8386 0,8.7797 -2.0262,-2.0258 0,-5.9153" /><path
       inkscape:connector-curvature="0"
       id="path38"
       style="fill:#6e3407;fill-opacity:1;fill-rule:evenodd;stroke:none"
       d="m 41.9504,85.4094 2.0262,2.0258 -9.5274,0 2.0258,-2.0258 5.4754,0" /><path
       inkscape:connector-curvature="0"
       id="path40"
       style="fill:url(#linearGradient3938);fill-opacity:1;fill-rule:evenodd;stroke:none"
       d="m 36.475,79.4941 -2.0258,-0.8386 0,8.7797 2.0258,-2.0258 0,-5.9153" /><path
       inkscape:connector-curvature="0"
       id="path42"
       style="fill:#6e3407;fill-opacity:1;fill-rule:evenodd;stroke:none"
       d="m 30.3973,64.6848 0.0062,2.8711 -7.5086,7.5703 -2.859,0.0058 10.3614,-10.4472" /><path
       inkscape:connector-curvature="0"
       id="path44"
       style="fill:url(#linearGradient3930);fill-opacity:1;fill-rule:evenodd;stroke:none"
       d="m 20.0359,75.132 2.859,-0.0058 3.5285,3.5293 -2.0254,0.8386 -4.3621,-4.3621" /><path
       inkscape:connector-curvature="0"
       id="path46"
       style="fill:#e24826;fill-opacity:1;fill-rule:evenodd;stroke:none"
       d="m 24.398,79.4941 2.0254,-0.8386 0,34.3285 -2.0254,0.842 0,-34.3319" /><path
       inkscape:connector-curvature="0"
       id="path48"
       style="fill:url(#linearGradient3914);fill-opacity:1;fill-rule:evenodd;stroke:none"
       d="m 52.0012,78.6555 2.0261,0.8386 0,35.3869 -2.0261,-0.838 0,-35.3875" /><path
       inkscape:connector-curvature="0"
       id="path50"
       style="fill:url(#linearGradient4018);fill-opacity:1;fill-rule:evenodd;stroke:none"
       d="m 123.514,78.3102 -2.026,-4.7731 9.599,9.2699 -2.026,0.8606 -5.547,-5.3574" /><path
       inkscape:connector-curvature="0"
       id="path52"
       style="fill:#e24a26;fill-opacity:1;fill-rule:evenodd;stroke:none"
       d="m 129.061,83.6676 2.026,-0.8606 0,28.208 -2.026,-0.865 0,-26.4824" /><path
       inkscape:connector-curvature="0"
       id="path54"
       style="fill:#6e3407;fill-opacity:1;fill-rule:evenodd;stroke:none"
       d="m 129.061,110.15 2.026,0.865 -9.599,9.189 2.026,-4.744 5.547,-5.31" /><path
       inkscape:connector-curvature="0"
       id="path56"
       style="fill:url(#linearGradient4010);fill-opacity:1;fill-rule:evenodd;stroke:none"
       d="m 123.514,78.3102 -2.026,-4.7731 0,46.6669 2.026,-4.744 0,-37.1498" /><path
       inkscape:connector-curvature="0"
       id="path58"
       style="fill:url(#linearGradient4026);fill-opacity:1;fill-rule:evenodd;stroke:none"
       d="m 141.137,77.182 -2.025,0.8321 0,37.7229 2.025,0.832 0,-39.387" /><path
       inkscape:connector-curvature="0"
       id="path60"
       style="fill:#e24926;fill-opacity:1;fill-rule:evenodd;stroke:none"
       d="m 129.354,65.248 -0.847,2.0262 10.605,10.7399 2.025,-0.8321 -11.783,-11.934" /><path
       inkscape:connector-curvature="0"
       id="path62"
       style="fill:#6e3407;fill-opacity:1;fill-rule:evenodd;stroke:none"
       d="m 115.597,65.248 0.862,2.0262 12.048,0 0.847,-2.0262 -13.757,0" /><path
       inkscape:connector-curvature="0"
       id="path64"
       style="fill:#6e3407;fill-opacity:1;fill-rule:evenodd;stroke:none"
       d="m 115.597,65.248 0.862,2.0262 -6.672,6.9289 -2.839,0.0262 8.649,-8.9813" /><path
       inkscape:connector-curvature="0"
       id="path66"
       style="fill:#f89f76;fill-opacity:1;fill-rule:evenodd;stroke:none"
       d="m 111.438,78.7191 2.025,-0.839 -3.676,-3.677 -2.839,0.0262 4.49,4.4898" /><path
       inkscape:connector-curvature="0"
       id="path68"
       style="fill:#e24a26;fill-opacity:1;fill-rule:evenodd;stroke:none"
       d="m 111.438,78.7191 2.025,-0.839 0,38.0609 -2.025,-0.839 0,-36.3829" /><path
       inkscape:connector-curvature="0"
       id="path70"
       style="fill:#6e3407;fill-opacity:1;fill-rule:evenodd;stroke:none"
       d="m 111.438,115.102 2.025,0.839 -3.74,3.741 -2.859,-0.007 4.574,-4.573" /><path
       inkscape:connector-curvature="0"
       id="path72"
       style="fill:url(#linearGradient4002);fill-opacity:1;fill-rule:evenodd;stroke:none"
       d="m 106.864,119.675 2.859,0.007 6.73,6.795 -0.844,2.025 -8.745,-8.827" /><path
       inkscape:connector-curvature="0"
       id="path74"
       style="fill:#fde6b8;fill-opacity:1;fill-rule:evenodd;stroke:none"
       d="m 129.354,128.502 -0.847,-2.025 -12.054,0 -0.844,2.025 13.745,0" /><path
       inkscape:connector-curvature="0"
       id="path76"
       style="fill:#fde6b8;fill-opacity:1;fill-rule:evenodd;stroke:none"
       d="m 141.137,116.569 -2.025,-0.832 -10.605,10.74 0.847,2.025 11.783,-11.933" /><path
       inkscape:connector-curvature="0"
       id="path78"
       style="fill:#fde6b8;fill-opacity:1;fill-rule:evenodd;stroke:none"
       d="m 110.319,100.305 -3.858,-2.0257 -8.3938,0 2.9038,2.0257 9.348,0" /><path
       inkscape:connector-curvature="0"
       id="path80"
       style="fill:#6e3407;fill-opacity:1;fill-rule:evenodd;stroke:none"
       d="m 89.9457,88.1582 2.8488,2.0258 -8.5187,0 -3.0922,-2.0258 8.7621,0" /><path
       inkscape:connector-curvature="0"
       id="path82"
       style="fill:#fde6b8;fill-opacity:1;fill-rule:evenodd;stroke:none"
       d="m 106.963,116.589 -2.904,-2.026 -9.1633,0 -1.3273,2.026 13.3946,0" /><path
       inkscape:connector-curvature="0"
       id="path84"
       style="fill:url(#linearGradient3986);fill-opacity:1;fill-rule:evenodd;stroke:none"
       d="m 100.971,100.305 -2.9038,-2.0257 5.9918,16.2837 2.904,2.026 -5.992,-16.284" /><path
       inkscape:connector-curvature="0"
       id="path86"
       style="fill:#fde6b8;fill-opacity:1;fill-rule:evenodd;stroke:none"
       d="m 85.9578,113.532 -2.8719,0.022 -12.6511,12.783 0.0113,2.868 15.5117,-15.673" /><path
       inkscape:connector-curvature="0"
       id="path88"
       style="fill:#e24926;fill-opacity:1;fill-rule:evenodd;stroke:none"
       d="m 85.9578,113.532 -2.8719,0.022 -6.1543,-6.032 -0.0238,-2.861 9.05,8.871" /><path
       inkscape:connector-curvature="0"
       id="path90"
       style="fill:#6e3407;fill-opacity:1;fill-rule:evenodd;stroke:none"
       d="m 76.9078,104.661 0.0238,2.861 -10.8339,10.984 2.0257,-4.938 8.7844,-8.907" /><path
       inkscape:connector-curvature="0"
       id="path92"
       style="fill:url(#linearGradient3970);fill-opacity:1;fill-rule:evenodd;stroke:none"
       d="m 68.1234,82.5371 -2.0257,-0.8566 0,36.8255 2.0257,-4.938 0,-31.0309" /><path
       inkscape:connector-curvature="0"
       id="path94"
       style="fill:#fde6b8;fill-opacity:1;fill-rule:evenodd;stroke:none"
       d="m 69.2262,81.4656 0.0211,-2.8445 -3.1496,3.0594 2.0257,0.8566 1.1028,-1.0715" /><path
       inkscape:connector-curvature="0"
       id="path96"
       style="fill:url(#linearGradient3978);fill-opacity:1;fill-rule:evenodd;stroke:none"
       d="m 69.2262,81.4656 0.0211,-2.8445 7.6816,7.6824 -0.0152,2.8496 -7.6875,-7.6875" /><path
       inkscape:connector-curvature="0"
       id="path98"
       style="fill:#fde6b8;fill-opacity:1;fill-rule:evenodd;stroke:none"
       d="m 85.6816,80.566 -2.88,-0.0148 -5.8727,5.7523 -0.0152,2.8496 8.7679,-8.5871" /><path
       inkscape:connector-curvature="0"
       id="path100"
       style="fill:#e24a26;fill-opacity:1;fill-rule:evenodd;stroke:none"
       d="m 85.6816,80.566 -2.88,-0.0148 -12.9989,-12.9989 0.0039,-2.8609 15.875,15.8746" /><path
       inkscape:connector-curvature="0"
       id="path102"
       style="fill:#6e3407;fill-opacity:1;fill-rule:evenodd;stroke:none"
       d="m 69.8066,64.6914 -0.0039,2.8609 -11.73,11.6633 -2.0254,-0.8422 13.7593,-13.682" /><path
       inkscape:connector-curvature="0"
       id="path104"
       style="fill:#e24826;fill-opacity:1;fill-rule:evenodd;stroke:none"
       d="m 56.0473,78.3734 2.0254,0.8422 0,34.8254 -2.0254,0.843 0,-36.5106" /><path
       inkscape:connector-curvature="0"
       id="path106"
       style="fill:url(#linearGradient3962);fill-opacity:1;fill-rule:evenodd;stroke:none"
       d="m 70.4461,129.205 -0.0113,-2.868 -12.3621,-12.296 -2.0254,0.843 14.3988,14.321" /><path
       inkscape:connector-curvature="0"
       id="path108"
       style="fill:#e24a27;fill-opacity:1;fill-rule:evenodd;stroke:none"
       d="m 157.716,126.337 -12.362,-12.296 0,-34.8254 11.731,-11.6633 12.999,12.9989 -5.873,5.7523 -7.682,-7.6824 -3.15,3.0594 0,36.8255 10.835,-10.984 6.154,6.032 -12.652,12.783" /><path
       inkscape:connector-curvature="0"
       id="path110"
       style="fill:#fde6b8;fill-opacity:1;fill-rule:evenodd;stroke:none"
       d="m 173.24,113.532 -2.872,0.022 -12.652,12.783 0.012,2.868 15.512,-15.673" /><path
       inkscape:connector-curvature="0"
       id="path112"
       style="fill:#e24a26;fill-opacity:1;fill-rule:evenodd;stroke:none"
       d="m 173.24,113.532 -2.872,0.022 -6.154,-6.032 -0.025,-2.861 9.051,8.871" /><path
       inkscape:connector-curvature="0"
       id="path114"
       style="fill:#6e3407;fill-opacity:1;fill-rule:evenodd;stroke:none"
       d="m 164.189,104.661 0.025,2.861 -10.835,10.984 2.026,-4.938 8.784,-8.907" /><path
       inkscape:connector-curvature="0"
       id="path116"
       style="fill:url(#linearGradient4042);fill-opacity:1;fill-rule:evenodd;stroke:none"
       d="m 155.405,82.5371 -2.026,-0.8566 0,36.8255 2.026,-4.938 0,-31.0309" /><path
       inkscape:connector-curvature="0"
       id="path118"
       style="fill:#fde6b8;fill-opacity:1;fill-rule:evenodd;stroke:none"
       d="m 156.508,81.4656 0.021,-2.8445 -3.15,3.0594 2.026,0.8566 1.103,-1.0715" /><path
       inkscape:connector-curvature="0"
       id="path120"
       style="fill:url(#linearGradient4050);fill-opacity:1;fill-rule:evenodd;stroke:none"
       d="m 156.508,81.4656 0.021,-2.8445 7.682,7.6824 -0.016,2.8496 -7.687,-7.6875" /><path
       inkscape:connector-curvature="0"
       id="path122"
       style="fill:#fde6b8;fill-opacity:1;fill-rule:evenodd;stroke:none"
       d="m 172.963,80.566 -2.879,-0.0148 -5.873,5.7523 -0.016,2.8496 8.768,-8.5871" /><path
       inkscape:connector-curvature="0"
       id="path124"
       style="fill:#e24926;fill-opacity:1;fill-rule:evenodd;stroke:none"
       d="m 172.963,80.566 -2.879,-0.0148 -12.999,-12.9989 0.003,-2.8609 15.875,15.8746" /><path
       inkscape:connector-curvature="0"
       id="path126"
       style="fill:#6e3407;fill-opacity:1;fill-rule:evenodd;stroke:none"
       d="m 157.088,64.6914 -0.003,2.8609 -11.731,11.6633 -2.025,-0.8422 13.759,-13.682" /><path
       inkscape:connector-curvature="0"
       id="path128"
       style="fill:#e24826;fill-opacity:1;fill-rule:evenodd;stroke:none"
       d="m 143.329,78.3734 2.025,0.8422 0,34.8254 -2.025,0.843 0,-36.5106" /><path
       inkscape:connector-curvature="0"
       id="path130"
       style="fill:url(#linearGradient4034);fill-opacity:1;fill-rule:evenodd;stroke:none"
       d="m 157.728,129.205 -0.012,-2.868 -12.362,-12.296 -2.025,0.843 14.399,14.321" /><path
       inkscape:connector-curvature="0"
       id="path132"
       style="fill:url(#linearGradient3922);fill-opacity:1;fill-rule:evenodd;stroke:none"
       d="m 26.4234,112.984 -2.0254,0.842 15.3809,15.303 -0.0031,-2.86 -13.3524,-13.285" /><path
       inkscape:connector-curvature="0"
       id="path134"
       style="fill:#fde6b8;fill-opacity:1;fill-rule:evenodd;stroke:none"
       d="m 52.0012,114.043 2.0261,0.838 -14.2484,14.248 -0.0031,-2.86 12.2254,-12.226" /><path
       inkscape:connector-curvature="0"
       id="path136"
       style="fill:url(#linearGradient3994);fill-opacity:1;fill-rule:evenodd;stroke:none"
       d="M 85.4129,68.9449 86.2113,66.5828 110.319,100.305 106.461,98.2793 85.4129,68.9449" /><path
       inkscape:connector-curvature="0"
       id="path138"
       style="fill:#e24a26;fill-opacity:1;fill-rule:evenodd;stroke:none"
       d="m 85.4129,68.9449 -2.966,-2.3621 7.4988,21.5754 2.8488,2.0258 -7.3816,-21.2391" /><path
       inkscape:connector-curvature="0"
       id="path140"
       style="fill:#e24a26;fill-opacity:1;fill-rule:evenodd;stroke:none"
       d="M 84.2758,90.184 81.1836,88.1582 93.5684,116.589 94.8957,114.563 84.2758,90.184" /><path
       inkscape:connector-curvature="0"
       id="path142"
       style="fill:#e24a26;fill-opacity:1;fill-rule:evenodd;stroke:none"
       d="m 82.4469,66.5828 3.7644,0 -0.7984,2.3621 -2.966,-2.3621" /><path
       inkscape:connector-curvature="0"
       id="path144"
       style="fill:url(#linearGradient3946);fill-opacity:1;fill-rule:evenodd;stroke:none"
       d="m 40.4461,75.1281 0.0016,-0.0019 3.5289,3.5293 -2.0262,0.8386 -2.7375,-2.7378 0,-1.6301 1.2332,0.0019" /><path
       inkscape:connector-curvature="0"
       id="path146"
       style="fill:#fde6b8;fill-opacity:1;fill-rule:evenodd;stroke:none"
       d="m 37.9758,75.1281 -3.5266,3.5274 2.0258,0.8386 2.7379,-2.7378 0,-1.6301 -1.2371,0.0019" /><path
       inkscape:connector-curvature="0"
       id="path148"
       style="fill:#6e3407;fill-opacity:1;fill-rule:evenodd;stroke:none"
       d="m 40.4457,75.1273 -1.2359,-0.0011 0,-1.6289 8.7402,-8.8125 0.0063,2.8711 -7.5106,7.5714" /><path
       inkscape:connector-curvature="0"
       id="path150"
       style="fill:#e24a26;fill-opacity:1;fill-rule:evenodd;stroke:none"
       d="m 30.4035,67.5559 -0.0062,-2.8711 8.8125,8.8125 0,1.6289 -1.234,0.0019 -7.5723,-7.5722" /></g></svg>